<svg width="330" height="318" viewBox="0 0 330 318" fill="none" xmlns="http://www.w3.org/2000/svg">
<g clip-path="url(#clip0_1_3)">
<path d="M211.832 58.7435C211.875 59.4272 212.077 60.0913 212.423 60.6831C212.769 61.2748 213.248 61.7776 213.822 62.1515L233.384 73.4549C234.003 73.763 234.684 73.9233 235.375 73.9233C236.066 73.9233 236.747 73.763 237.365 73.4549L256.813 62.3788C257.389 62.0113 257.867 61.5086 258.204 60.9146C258.541 60.3205 258.727 59.6532 258.747 58.9707L258.633 36.5911C258.59 35.9075 258.388 35.2433 258.042 34.6516C257.696 34.0599 257.217 33.557 256.643 33.1831L237.081 21.8797C236.463 21.5716 235.781 21.4113 235.09 21.4113C234.4 21.4113 233.718 21.5716 233.1 21.8797L213.652 32.9559C213.076 33.3234 212.598 33.8261 212.261 34.4201C211.924 35.0141 211.738 35.6814 211.718 36.3639L211.832 58.7435Z" stroke="#ED6C50" stroke-width="2" stroke-miterlimit="10"/>
<path d="M178.793 53.2338C178.225 53.6104 177.755 54.1151 177.419 54.7072C177.083 55.2993 176.891 55.9621 176.859 56.6419L176.859 79.2486C176.903 79.9256 177.1 80.584 177.435 81.1742C177.77 81.7645 178.234 82.2713 178.793 82.6567L198.127 93.9601C198.735 94.268 199.408 94.4284 200.089 94.4284C200.771 94.4284 201.443 94.268 202.051 93.9601L221.386 82.6567C221.953 82.2801 222.424 81.7754 222.76 81.1833C223.096 80.5912 223.287 79.9284 223.319 79.2486L223.319 56.6419C223.275 55.9649 223.079 55.3066 222.744 54.7163C222.409 54.1261 221.945 53.6192 221.386 53.2338L202.051 41.9304C201.443 41.6225 200.771 41.4621 200.089 41.4621C199.408 41.4621 198.735 41.6225 198.127 41.9304L178.793 53.2338Z" stroke="#ED6C50" stroke-width="2" stroke-miterlimit="10"/>
<path d="M167.078 21.9365C166.46 21.6285 165.779 21.4681 165.088 21.4681C164.397 21.4681 163.716 21.6285 163.098 21.9365L143.536 33.2399C142.961 33.6138 142.482 34.1166 142.136 34.7084C141.791 35.3001 141.589 35.9642 141.546 36.6479L141.432 59.0275C141.464 59.7073 141.655 60.3701 141.991 60.9622C142.327 61.5543 142.798 62.059 143.365 62.4356L162.813 73.5117C163.432 73.8198 164.113 73.9801 164.804 73.9801C165.495 73.9801 166.176 73.8198 166.794 73.5117L186.356 62.2083C186.931 61.8344 187.41 61.3316 187.755 60.7398C188.101 60.1481 188.303 59.484 188.346 58.8003L188.46 36.4208C188.428 35.741 188.237 35.0781 187.901 34.4861C187.565 33.894 187.094 33.3893 186.527 33.0127L167.078 21.9365Z" stroke="#ED6C50" stroke-width="2" stroke-miterlimit="10"/>
<path d="M151.099 42.2144C151.667 41.8379 152.137 41.3331 152.473 40.741C152.809 40.1489 153.001 39.4862 153.032 38.8064L153.032 16.1996C152.989 15.5226 152.792 14.8643 152.457 14.274C152.122 13.6838 151.658 13.1769 151.099 12.7915L131.765 1.48818C131.156 1.18029 130.484 1.01981 129.803 1.01981C129.121 1.01981 128.449 1.18029 127.841 1.48818L108.506 12.7915C107.939 13.1681 107.468 13.6728 107.132 14.2649C106.796 14.857 106.605 15.5198 106.573 16.1996L106.573 38.8064C106.617 39.4834 106.813 40.1417 107.148 40.7319C107.483 41.3222 107.947 41.829 108.506 42.2144L127.841 53.5178C128.449 53.8257 129.121 53.9861 129.803 53.9861C130.484 53.9861 131.156 53.8257 131.765 53.5178L151.099 42.2144Z" stroke="#ED6C50" stroke-width="2" stroke-miterlimit="10"/>
<path d="M141.546 99.2994C141.589 99.983 141.791 100.647 142.136 101.239C142.482 101.831 142.961 102.334 143.536 102.707L163.098 114.011C163.716 114.319 164.397 114.479 165.088 114.479C165.779 114.479 166.46 114.319 167.078 114.011L186.527 102.935C187.103 102.567 187.58 102.064 187.917 101.47C188.254 100.876 188.441 100.209 188.46 99.5266L188.346 77.147C188.303 76.4633 188.101 75.7991 187.755 75.2074C187.41 74.6157 186.931 74.1128 186.356 73.7389L166.794 62.4355C166.176 62.1275 165.495 61.9672 164.804 61.9672C164.113 61.9672 163.432 62.1275 162.813 62.4355L143.365 73.5117C142.789 73.8792 142.312 74.3819 141.975 74.9759C141.638 75.5699 141.451 76.2373 141.432 76.9198L141.546 99.2994Z" stroke="#ED6C50" stroke-width="2" stroke-miterlimit="10"/>
<path d="M108.506 93.7897C107.939 94.1662 107.468 94.671 107.132 95.263C106.796 95.8551 106.605 96.5179 106.573 97.1977L106.573 119.804C106.617 120.482 106.813 121.14 107.148 121.73C107.483 122.32 107.947 122.827 108.506 123.213L127.841 134.516C128.449 134.824 129.121 134.984 129.803 134.984C130.484 134.984 131.157 134.824 131.765 134.516L151.099 123.213C151.667 122.836 152.137 122.331 152.473 121.739C152.809 121.147 153.001 120.484 153.032 119.804L153.032 97.1977C152.989 96.5207 152.792 95.8624 152.457 95.2722C152.122 94.6819 151.658 94.1751 151.099 93.7897L131.765 82.4863C131.157 82.1784 130.484 82.0179 129.803 82.0179C129.121 82.0179 128.449 82.1784 127.841 82.4863L108.506 93.7897Z" stroke="#ED6C50" stroke-width="2" stroke-miterlimit="10"/>
<path d="M96.7919 62.4356C96.1737 62.1275 95.4923 61.9672 94.8015 61.9672C94.1107 61.9672 93.4294 62.1275 92.8112 62.4356L73.2493 73.739C72.6746 74.1129 72.1954 74.6158 71.8499 75.2075C71.5043 75.7992 71.302 76.4633 71.259 77.147L71.1452 99.5266C71.177 100.206 71.3686 100.869 71.7045 101.461C72.0404 102.053 72.5112 102.558 73.0787 102.935L92.5269 114.011C93.145 114.319 93.8264 114.479 94.5172 114.479C95.208 114.479 95.8894 114.319 96.5075 114.011L116.07 102.707C116.644 102.334 117.123 101.831 117.469 101.239C117.814 100.647 118.017 99.9831 118.06 99.2994L118.174 76.9198C118.142 76.24 117.95 75.5772 117.614 74.9852C117.278 74.3931 116.808 73.8883 116.24 73.5117L96.7919 62.4356Z" stroke="#ED6C50" stroke-width="2" stroke-miterlimit="10"/>
<path d="M118.117 36.6479C118.074 35.9642 117.871 35.3001 117.526 34.7084C117.18 34.1166 116.701 33.6138 116.126 33.2399L96.5644 21.9365C95.9463 21.6285 95.2649 21.4681 94.5741 21.4681C93.8833 21.4681 93.2019 21.6285 92.5838 21.9365L73.1356 33.0127C72.5595 33.3802 72.0821 33.8829 71.7451 34.4769C71.4081 35.0709 71.2217 35.7383 71.2021 36.4208L71.3158 58.8003C71.3588 59.484 71.5612 60.1481 71.9068 60.7398C72.2523 61.3316 72.7315 61.8344 73.3062 62.2083L92.8681 73.5117C93.4863 73.8198 94.1676 73.9801 94.8584 73.9801C95.5493 73.9801 96.2306 73.8198 96.8488 73.5117L116.297 62.4356C116.873 62.068 117.35 61.5654 117.687 60.9714C118.024 60.3773 118.211 59.71 118.23 59.0275L118.117 36.6479Z" stroke="#ED6C50" stroke-width="2" stroke-miterlimit="10"/>
<path d="M38.2197 53.2338C37.6522 53.6104 37.1814 54.1151 36.8455 54.7072C36.5096 55.2993 36.3181 55.9621 36.2863 56.6419L36.2863 79.2486C36.3301 79.9256 36.5267 80.584 36.8616 81.1742C37.1964 81.7645 37.6608 82.2713 38.2197 82.6567L57.5542 93.9601C58.1623 94.268 58.8344 94.4284 59.5161 94.4284C60.1978 94.4284 60.87 94.268 61.478 93.9601L80.8125 82.6567C81.38 82.2801 81.8508 81.7754 82.1867 81.1833C82.5226 80.5912 82.7142 79.9284 82.746 79.2486L82.746 56.6419C82.7022 55.9649 82.5055 55.3066 82.1706 54.7163C81.8358 54.1261 81.3715 53.6192 80.8125 53.2338L61.478 41.9304C60.8699 41.6225 60.1978 41.4621 59.5161 41.4621C58.8344 41.4621 58.1623 41.6225 57.5542 41.9304L38.2197 53.2338Z" stroke="#ED6C50" stroke-width="2" stroke-miterlimit="10"/>
<path d="M108.506 53.2906C107.939 53.6672 107.468 54.1719 107.132 54.764C106.796 55.3561 106.605 56.0189 106.573 56.6987L106.573 79.3055C106.617 79.9825 106.813 80.6408 107.148 81.231C107.483 81.8213 107.947 82.3281 108.506 82.7135L127.841 94.0169C128.449 94.3248 129.121 94.4852 129.803 94.4852C130.484 94.4852 131.157 94.3248 131.765 94.0169L151.099 82.7135C151.667 82.337 152.137 81.8322 152.473 81.2401C152.809 80.648 153.001 79.9853 153.032 79.3055L153.032 56.6987C152.989 56.0217 152.792 55.3633 152.457 54.7731C152.122 54.1829 151.658 53.676 151.099 53.2906L131.765 41.9872C131.157 41.6793 130.484 41.5189 129.803 41.5189C129.121 41.5189 128.449 41.6793 127.841 41.9872L108.506 53.2906Z" stroke="#ED6C50" stroke-width="2" stroke-miterlimit="10"/>
<path d="M221.442 42.1576C222.01 41.7811 222.481 41.2763 222.817 40.6842C223.153 40.0921 223.344 39.4294 223.376 38.7496L223.376 16.1427C223.332 15.4657 223.135 14.8074 222.801 14.2172C222.466 13.6269 222.001 13.1201 221.442 12.7347L202.108 1.43129C201.5 1.1234 200.828 0.962987 200.146 0.962987C199.464 0.962987 198.792 1.1234 198.184 1.43129L178.85 12.7347C178.282 13.1112 177.811 13.616 177.476 14.2081C177.14 14.8002 176.948 15.4629 176.916 16.1428L176.916 38.7496C176.96 39.4266 177.157 40.0849 177.492 40.6751C177.826 41.2654 178.291 41.7722 178.85 42.1576L198.184 53.461C198.792 53.7689 199.464 53.9293 200.146 53.9293C200.828 53.9293 201.5 53.7689 202.108 53.461L221.442 42.1576Z" stroke="#ED6C50" stroke-width="2" stroke-miterlimit="10"/>
<path d="M249.193 12.6779C248.626 13.0544 248.155 13.5592 247.819 14.1513C247.483 14.7434 247.291 15.4062 247.26 16.086L247.26 38.6928C247.303 39.3698 247.5 40.0281 247.835 40.6183C248.17 41.2086 248.634 41.7154 249.193 42.1008L268.528 53.4042C269.136 53.7121 269.808 53.8725 270.49 53.8725C271.171 53.8725 271.843 53.7121 272.451 53.4042L291.786 42.1008C292.353 41.7243 292.824 41.2195 293.16 40.6274C293.496 40.0353 293.688 39.3726 293.719 38.6928L293.719 16.086C293.676 15.4089 293.479 14.7506 293.144 14.1604C292.809 13.5702 292.345 13.0633 291.786 12.6779L272.451 1.3745C271.843 1.0666 271.171 0.906194 270.49 0.906194C269.808 0.906194 269.136 1.0666 268.528 1.3745L249.193 12.6779Z" stroke="#ED6C50" stroke-width="2" stroke-miterlimit="10"/>
<path d="M307.652 21.8797C307.033 21.5716 306.352 21.4113 305.661 21.4113C304.97 21.4113 304.289 21.5716 303.671 21.8797L284.109 33.1831C283.534 33.557 283.055 34.0599 282.71 34.6516C282.364 35.2433 282.162 35.9075 282.119 36.5911L282.005 58.9707C282.037 59.6505 282.228 60.3133 282.564 60.9054C282.9 61.4974 283.371 62.0022 283.938 62.3788L303.443 73.4549C304.062 73.763 304.743 73.9233 305.434 73.9233C306.125 73.9233 306.806 73.763 307.424 73.4549L326.986 62.1515C327.561 61.7776 328.04 61.2748 328.385 60.6831C328.731 60.0913 328.933 59.4272 328.976 58.7435L329.09 36.3639C329.058 35.6841 328.867 35.0214 328.531 34.4293C328.195 33.8372 327.724 33.3324 327.157 32.9559L307.652 21.8797Z" stroke="#ED6C50" stroke-width="2" stroke-miterlimit="10"/>
<path d="M328.976 77.2038C328.933 76.5201 328.731 75.8559 328.385 75.2642C328.04 74.6725 327.561 74.1696 326.986 73.7957L307.424 62.4923C306.806 62.1843 306.125 62.024 305.434 62.024C304.743 62.024 304.062 62.1843 303.443 62.4923L283.995 73.5685C283.419 73.936 282.942 74.4388 282.605 75.0328C282.268 75.6268 282.081 76.2941 282.062 76.9766L282.176 99.3562C282.219 100.04 282.421 100.704 282.766 101.296C283.112 101.887 283.591 102.39 284.166 102.764L303.728 114.068C304.346 114.376 305.027 114.536 305.718 114.536C306.409 114.536 307.09 114.376 307.708 114.068L327.157 102.991C327.733 102.624 328.21 102.121 328.547 101.527C328.884 100.933 329.071 100.266 329.09 99.5834L328.976 77.2038Z" stroke="#ED6C50" stroke-width="2" stroke-miterlimit="10"/>
<path d="M307.652 102.991C307.033 102.683 306.352 102.523 305.661 102.523C304.97 102.523 304.289 102.683 303.671 102.991L284.109 114.295C283.534 114.669 283.055 115.172 282.71 115.763C282.364 116.355 282.162 117.019 282.119 117.703L282.005 140.082C282.037 140.762 282.228 141.425 282.564 142.017C282.9 142.609 283.371 143.114 283.938 143.49L303.443 154.567C304.062 154.875 304.743 155.035 305.434 155.035C306.125 155.035 306.806 154.875 307.424 154.567L326.986 143.263C327.561 142.889 328.04 142.387 328.385 141.795C328.731 141.203 328.933 140.539 328.976 139.855L329.09 117.476C329.058 116.796 328.867 116.133 328.531 115.541C328.195 114.949 327.724 114.444 327.157 114.068L307.652 102.991Z" stroke="#ED6C50" stroke-width="2" stroke-miterlimit="10"/>
<path d="M291.672 123.269C292.24 122.893 292.71 122.388 293.046 121.796C293.382 121.204 293.574 120.541 293.606 119.861L293.606 97.2546C293.562 96.5775 293.365 95.9192 293.03 95.329C292.695 94.7387 292.231 94.2319 291.672 93.8465L272.338 82.5431C271.73 82.2352 271.058 82.0747 270.376 82.0747C269.694 82.0747 269.022 82.2352 268.414 82.5431L249.079 93.8465C248.512 94.223 248.041 94.7278 247.705 95.3199C247.369 95.912 247.178 96.5748 247.146 97.2546L247.146 119.861C247.19 120.538 247.386 121.197 247.721 121.787C248.056 122.377 248.52 122.884 249.079 123.269L268.414 134.573C269.022 134.881 269.694 135.041 270.376 135.041C271.058 135.041 271.73 134.881 272.338 134.573L291.672 123.269Z" stroke="#ED6C50" stroke-width="2" stroke-miterlimit="10"/>
<path d="M282.119 180.354C282.162 181.038 282.364 181.702 282.71 182.294C283.055 182.886 283.534 183.388 284.109 183.762L303.671 195.066C304.289 195.374 304.97 195.534 305.661 195.534C306.352 195.534 307.033 195.374 307.652 195.066L327.1 183.99C327.676 183.622 328.153 183.119 328.49 182.525C328.827 181.931 329.014 181.264 329.033 180.581L328.92 158.202C328.877 157.518 328.674 156.854 328.329 156.262C327.983 155.671 327.504 155.168 326.929 154.794L307.367 143.49C306.749 143.182 306.068 143.022 305.377 143.022C304.686 143.022 304.005 143.182 303.387 143.49L283.938 154.567C283.362 154.934 282.885 155.437 282.548 156.031C282.211 156.625 282.025 157.292 282.005 157.975L282.119 180.354Z" stroke="#ED6C50" stroke-width="2" stroke-miterlimit="10"/>
<path d="M249.079 174.845C248.512 175.221 248.041 175.726 247.705 176.318C247.369 176.91 247.178 177.573 247.146 178.253L247.146 200.859C247.19 201.536 247.386 202.195 247.721 202.785C248.056 203.375 248.52 203.882 249.079 204.267L268.414 215.571C269.022 215.879 269.694 216.039 270.376 216.039C271.058 216.039 271.73 215.879 272.338 215.571L291.672 204.267C292.24 203.891 292.711 203.386 293.046 202.794C293.382 202.202 293.574 201.539 293.606 200.859L293.606 178.253C293.562 177.576 293.365 176.917 293.03 176.327C292.695 175.737 292.231 175.23 291.672 174.845L272.338 163.541C271.73 163.233 271.058 163.073 270.376 163.073C269.694 163.073 269.022 163.233 268.414 163.541L249.079 174.845Z" stroke="#ED6C50" stroke-width="2" stroke-miterlimit="10"/>
<path d="M237.365 143.547C236.747 143.239 236.066 143.079 235.375 143.079C234.684 143.079 234.003 143.239 233.384 143.547L213.822 154.851C213.248 155.225 212.769 155.727 212.423 156.319C212.077 156.911 211.875 157.575 211.832 158.259L211.718 180.638C211.75 181.318 211.942 181.981 212.278 182.573C212.614 183.165 213.084 183.67 213.652 184.046L233.1 195.123C233.718 195.431 234.4 195.591 235.09 195.591C235.781 195.591 236.463 195.431 237.081 195.123L256.643 183.819C257.217 183.445 257.697 182.942 258.042 182.351C258.388 181.759 258.59 181.095 258.633 180.411L258.747 158.032C258.715 157.352 258.523 156.689 258.187 156.097C257.852 155.505 257.381 155 256.813 154.623L237.365 143.547Z" stroke="#ED6C50" stroke-width="2" stroke-miterlimit="10"/>
<path d="M258.69 117.703C258.647 117.019 258.444 116.355 258.099 115.763C257.753 115.172 257.274 114.669 256.7 114.295L237.138 102.991C236.519 102.683 235.838 102.523 235.147 102.523C234.456 102.523 233.775 102.683 233.157 102.991L213.709 114.068C213.133 114.435 212.655 114.938 212.318 115.532C211.981 116.126 211.795 116.793 211.775 117.476L211.889 139.855C211.932 140.539 212.134 141.203 212.48 141.795C212.825 142.387 213.305 142.889 213.879 143.263L233.441 154.567C234.059 154.875 234.741 155.035 235.432 155.035C236.122 155.035 236.804 154.875 237.422 154.567L256.813 143.49C257.389 143.123 257.867 142.62 258.204 142.026C258.541 141.432 258.727 140.765 258.747 140.082L258.69 117.703Z" stroke="#ED6C50" stroke-width="2" stroke-miterlimit="10"/>
<path d="M233.1 114.011C233.718 114.319 234.4 114.479 235.09 114.479C235.781 114.479 236.463 114.319 237.081 114.011L256.643 102.707C257.217 102.334 257.697 101.831 258.042 101.239C258.388 100.647 258.59 99.983 258.633 99.2994L258.747 76.9198C258.715 76.24 258.523 75.5772 258.187 74.9851C257.852 74.393 257.381 73.8883 256.813 73.5117L237.365 62.4355C236.747 62.1275 236.066 61.9672 235.375 61.9672C234.684 61.9672 234.003 62.1275 233.384 62.4355L213.822 73.7389C213.248 74.1129 212.769 74.6157 212.423 75.2074C212.077 75.7991 211.875 76.4633 211.832 77.147L211.718 99.5266C211.75 100.206 211.942 100.869 212.278 101.461C212.614 102.053 213.084 102.558 213.652 102.935L233.1 114.011Z" stroke="#ED6C50" stroke-width="2" stroke-miterlimit="10"/>
<path d="M178.793 134.289C178.225 134.665 177.755 135.17 177.419 135.762C177.083 136.354 176.891 137.017 176.859 137.697L176.859 160.304C176.903 160.981 177.1 161.639 177.435 162.229C177.77 162.819 178.234 163.326 178.793 163.712L198.127 175.015C198.735 175.323 199.408 175.483 200.089 175.483C200.771 175.483 201.443 175.323 202.051 175.015L221.386 163.712C221.953 163.335 222.424 162.83 222.76 162.238C223.096 161.646 223.287 160.983 223.319 160.304L223.319 137.697C223.275 137.02 223.079 136.361 222.744 135.771C222.409 135.181 221.945 134.674 221.386 134.289L202.051 122.985C201.443 122.677 200.771 122.517 200.089 122.517C199.408 122.517 198.735 122.677 198.127 122.985L178.793 134.289Z" stroke="#ED6C50" stroke-width="2" stroke-miterlimit="10"/>
<path d="M167.078 102.991C166.46 102.683 165.779 102.523 165.088 102.523C164.397 102.523 163.716 102.683 163.098 102.991L143.536 114.295C142.961 114.669 142.482 115.172 142.136 115.763C141.791 116.355 141.589 117.019 141.546 117.703L141.432 140.082C141.464 140.762 141.655 141.425 141.991 142.017C142.327 142.609 142.798 143.114 143.365 143.49L162.813 154.567C163.432 154.875 164.113 155.035 164.804 155.035C165.495 155.035 166.176 154.875 166.794 154.567L186.356 143.263C186.931 142.889 187.41 142.387 187.755 141.795C188.101 141.203 188.303 140.539 188.346 139.855L188.46 117.476C188.428 116.796 188.237 116.133 187.901 115.541C187.565 114.949 187.094 114.444 186.527 114.068L167.078 102.991Z" stroke="#ED6C50" stroke-width="2" stroke-miterlimit="10"/>
<path d="M188.346 77.2038C188.303 76.5201 188.101 75.8559 187.755 75.2642C187.41 74.6725 186.931 74.1696 186.356 73.7957L166.794 62.4923C166.176 62.1843 165.495 62.024 164.804 62.024C164.113 62.024 163.432 62.1843 162.813 62.4923L143.365 73.5685C142.789 73.936 142.312 74.4388 141.975 75.0328C141.638 75.6268 141.451 76.2941 141.432 76.9766L141.546 99.3562C141.589 100.04 141.791 100.704 142.136 101.296C142.482 101.887 142.961 102.39 143.536 102.764L163.098 114.068C163.716 114.376 164.397 114.536 165.088 114.536C165.779 114.536 166.46 114.376 167.078 114.068L186.527 102.991C187.103 102.624 187.58 102.121 187.917 101.527C188.254 100.933 188.441 100.266 188.46 99.5834L188.346 77.2038Z" stroke="#ED6C50" stroke-width="2" stroke-miterlimit="10"/>
<path d="M221.386 82.7135C221.953 82.337 222.424 81.8322 222.76 81.2401C223.096 80.648 223.287 79.9853 223.319 79.3055L223.319 56.6987C223.275 56.0217 223.079 55.3633 222.744 54.7731C222.409 54.1829 221.945 53.676 221.386 53.2906L202.051 41.9872C201.443 41.6793 200.771 41.5189 200.089 41.5189C199.408 41.5189 198.735 41.6793 198.127 41.9872L178.793 53.2906C178.225 53.6672 177.755 54.1719 177.419 54.764C177.083 55.3561 176.891 56.0189 176.859 56.6987L176.859 79.3055C176.903 79.9825 177.1 80.6408 177.435 81.231C177.77 81.8213 178.234 82.3281 178.793 82.7135L198.127 94.0169C198.735 94.3248 199.408 94.4852 200.089 94.4852C200.771 94.4852 201.443 94.3248 202.051 94.0169L221.386 82.7135Z" stroke="#ED6C50" stroke-width="2" stroke-miterlimit="10"/>
<path d="M211.775 58.7435C211.818 59.4272 212.021 60.0913 212.366 60.6831C212.712 61.2748 213.191 61.7776 213.766 62.1515L233.328 73.4549C233.946 73.763 234.627 73.9233 235.318 73.9233C236.009 73.9233 236.69 73.763 237.308 73.4549L256.756 62.3788C257.332 62.0113 257.81 61.5086 258.147 60.9146C258.484 60.3205 258.67 59.6532 258.69 58.9707L258.576 36.5911C258.533 35.9075 258.331 35.2433 257.985 34.6516C257.64 34.0599 257.16 33.557 256.586 33.1831L237.024 21.8797C236.406 21.5716 235.724 21.4113 235.034 21.4113C234.343 21.4113 233.661 21.5716 233.043 21.8797L213.595 32.9559C213.019 33.3234 212.542 33.8261 212.205 34.4201C211.868 35.0141 211.681 35.6814 211.661 36.3639L211.775 58.7435Z" stroke="#ED6C50" stroke-width="2" stroke-miterlimit="10"/>
<path d="M167.078 21.8797C166.46 21.5716 165.779 21.4113 165.088 21.4113C164.397 21.4113 163.716 21.5716 163.098 21.8797L143.536 33.1831C142.961 33.557 142.482 34.0599 142.136 34.6516C141.791 35.2433 141.589 35.9075 141.546 36.5911L141.432 58.9707C141.464 59.6505 141.655 60.3133 141.991 60.9054C142.327 61.4974 142.798 62.0022 143.365 62.3788L162.813 73.4549C163.432 73.763 164.113 73.9233 164.804 73.9233C165.495 73.9233 166.176 73.763 166.794 73.4549L186.356 62.1515C186.931 61.7776 187.41 61.2748 187.755 60.6831C188.101 60.0913 188.303 59.4272 188.346 58.7435L188.46 36.3639C188.428 35.6841 188.237 35.0214 187.901 34.4293C187.565 33.8372 187.094 33.3324 186.527 32.9559L167.078 21.8797Z" stroke="#ED6C50" stroke-width="2" stroke-miterlimit="10"/>
<path d="M249.079 12.6779C248.512 13.0544 248.041 13.5592 247.705 14.1513C247.369 14.7434 247.178 15.4062 247.146 16.086L247.146 38.6928C247.19 39.3698 247.386 40.0281 247.721 40.6183C248.056 41.2086 248.52 41.7154 249.079 42.1008L268.414 53.4042C269.022 53.7121 269.694 53.8725 270.376 53.8725C271.058 53.8725 271.73 53.7121 272.338 53.4042L291.672 42.1008C292.24 41.7243 292.71 41.2195 293.046 40.6274C293.382 40.0353 293.574 39.3726 293.606 38.6928L293.606 16.086C293.562 15.4089 293.365 14.7506 293.03 14.1604C292.695 13.5702 292.231 13.0633 291.672 12.6779L272.338 1.3745C271.73 1.0666 271.058 0.906194 270.376 0.906194C269.694 0.906194 269.022 1.0666 268.414 1.3745L249.079 12.6779Z" stroke="#ED6C50" stroke-width="2" stroke-miterlimit="10"/>
<path d="M272.451 42.1576C271.833 41.8496 271.152 41.6893 270.461 41.6893C269.77 41.6893 269.089 41.8496 268.471 42.1576L248.909 53.461C248.334 53.835 247.855 54.3378 247.509 54.9295C247.164 55.5212 246.962 56.1854 246.919 56.8691L246.805 79.2486C246.837 79.9284 247.028 80.5912 247.364 81.1833C247.7 81.7754 248.171 82.2801 248.738 82.6567L268.186 93.7329C268.805 94.0409 269.486 94.2012 270.177 94.2012C270.868 94.2012 271.549 94.0409 272.167 93.7329L291.729 82.4295C292.304 82.0556 292.783 81.5527 293.128 80.961C293.474 80.3693 293.676 79.7051 293.719 79.0214L293.833 56.6419C293.801 55.9621 293.61 55.2993 293.274 54.7072C292.938 54.1151 292.467 53.6104 291.9 53.2338L272.451 42.1576Z" stroke="#ED6C50" stroke-width="2" stroke-miterlimit="10"/>
<path d="M202.165 82.7135C201.547 82.4055 200.865 82.2451 200.175 82.2451C199.484 82.2451 198.802 82.4055 198.184 82.7135L178.622 94.0169C178.048 94.3908 177.568 94.8937 177.223 95.4854C176.877 96.0771 176.675 96.7413 176.632 97.425L176.518 119.805C176.55 120.484 176.742 121.147 177.078 121.739C177.413 122.331 177.884 122.836 178.452 123.213L197.9 134.289C198.518 134.597 199.199 134.757 199.89 134.757C200.581 134.757 201.262 134.597 201.881 134.289L221.442 122.985C222.017 122.611 222.496 122.109 222.842 121.517C223.187 120.925 223.39 120.261 223.433 119.577L223.547 97.1977C223.515 96.5179 223.323 95.8551 222.987 95.2631C222.651 94.671 222.181 94.1662 221.613 93.7897L202.165 82.7135Z" stroke="#ED6C50" stroke-width="2" stroke-miterlimit="10"/>
<path d="M268.243 174.845C268.861 175.153 269.543 175.313 270.234 175.313C270.924 175.313 271.606 175.153 272.224 174.845L291.786 163.541C292.361 163.167 292.84 162.664 293.185 162.073C293.531 161.481 293.733 160.817 293.776 160.133L293.89 137.754C293.858 137.074 293.667 136.411 293.331 135.819C292.995 135.227 292.524 134.722 291.957 134.346L272.508 123.269C271.89 122.961 271.209 122.801 270.518 122.801C269.827 122.801 269.146 122.961 268.528 123.269L248.966 134.573C248.391 134.947 247.912 135.45 247.566 136.041C247.221 136.633 247.018 137.297 246.975 137.981L246.862 160.36C246.893 161.04 247.085 161.703 247.421 162.295C247.757 162.887 248.228 163.392 248.795 163.768L268.243 174.845Z" stroke="#ED6C50" stroke-width="2" stroke-miterlimit="10"/>
<path d="M197.957 53.177C198.575 53.4851 199.256 53.6454 199.947 53.6454C200.638 53.6454 201.319 53.4851 201.937 53.177L221.499 41.8736C222.074 41.4997 222.553 40.9968 222.899 40.4051C223.244 39.8134 223.447 39.1492 223.49 38.4656L223.603 16.086C223.572 15.4062 223.38 14.7434 223.044 14.1513C222.708 13.5592 222.237 13.0545 221.67 12.6779L202.222 1.60174C201.604 1.29369 200.922 1.13336 200.231 1.13336C199.541 1.13336 198.859 1.29369 198.241 1.60174L178.679 12.9051C178.105 13.2791 177.625 13.7819 177.28 14.3736C176.934 14.9653 176.732 15.6295 176.689 16.3132L176.575 38.6928C176.607 39.3726 176.798 40.0353 177.134 40.6274C177.47 41.2195 177.941 41.7243 178.509 42.1008L197.957 53.177Z" stroke="#ED6C50" stroke-width="2" stroke-miterlimit="10"/>
<path d="M249.079 12.6211C248.512 12.9977 248.041 13.5024 247.705 14.0945C247.369 14.6866 247.178 15.3494 247.146 16.0292L247.146 38.6359C247.19 39.3129 247.386 39.9713 247.721 40.5616C248.056 41.1518 248.52 41.6586 249.079 42.044L268.414 53.3474C269.022 53.6553 269.694 53.8158 270.376 53.8158C271.058 53.8158 271.73 53.6553 272.338 53.3474L291.672 42.044C292.24 41.6674 292.71 41.1627 293.046 40.5706C293.382 39.9786 293.574 39.3157 293.606 38.6359L293.606 16.0292C293.562 15.3522 293.365 14.6939 293.03 14.1036C292.695 13.5134 292.231 13.0065 291.672 12.6211L272.338 1.31771C271.73 1.00982 271.058 0.849339 270.376 0.84934C269.694 0.84934 269.022 1.00982 268.414 1.31771L249.079 12.6211Z" stroke="#ED6C50" stroke-width="2" stroke-miterlimit="10"/>
<path d="M307.708 184.103C307.09 183.795 306.409 183.635 305.718 183.635C305.027 183.635 304.346 183.795 303.728 184.103L284.166 195.407C283.591 195.78 283.112 196.283 282.766 196.875C282.421 197.467 282.219 198.131 282.176 198.815L282.062 221.194C282.094 221.874 282.285 222.537 282.621 223.129C282.957 223.721 283.428 224.226 283.995 224.602L303.443 235.678C304.062 235.986 304.743 236.147 305.434 236.147C306.125 236.147 306.806 235.986 307.424 235.678L326.986 224.375C327.561 224.001 328.04 223.498 328.385 222.907C328.731 222.315 328.933 221.651 328.976 220.967L329.09 198.587C329.058 197.908 328.867 197.245 328.531 196.653C328.195 196.061 327.724 195.556 327.157 195.179L307.708 184.103Z" stroke="#ED6C50" stroke-width="2" stroke-miterlimit="10"/>
<path d="M329.033 158.316C328.99 157.632 328.788 156.968 328.442 156.376C328.097 155.784 327.618 155.281 327.043 154.907L307.481 143.604C306.863 143.296 306.181 143.136 305.491 143.136C304.8 143.136 304.119 143.296 303.5 143.604L284.052 154.68C283.476 155.048 282.999 155.55 282.662 156.144C282.325 156.738 282.138 157.406 282.119 158.088L282.232 180.468C282.275 181.152 282.478 181.816 282.823 182.407C283.169 182.999 283.648 183.502 284.223 183.876L303.785 195.179C304.403 195.487 305.084 195.648 305.775 195.648C306.466 195.648 307.147 195.487 307.765 195.179L327.214 184.103C327.79 183.736 328.267 183.233 328.604 182.639C328.941 182.045 329.127 181.378 329.147 180.695L329.033 158.316Z" stroke="#ED6C50" stroke-width="2" stroke-miterlimit="10"/>
<path d="M307.708 102.991C307.09 102.683 306.409 102.523 305.718 102.523C305.027 102.523 304.346 102.683 303.728 102.991L284.166 114.295C283.591 114.669 283.112 115.172 282.766 115.763C282.421 116.355 282.219 117.019 282.176 117.703L282.062 140.082C282.094 140.762 282.285 141.425 282.621 142.017C282.957 142.609 283.428 143.114 283.995 143.49L303.443 154.567C304.062 154.875 304.743 155.035 305.434 155.035C306.125 155.035 306.806 154.875 307.424 154.567L326.986 143.263C327.561 142.889 328.04 142.387 328.385 141.795C328.731 141.203 328.933 140.539 328.976 139.855L329.09 117.476C329.058 116.796 328.867 116.133 328.531 115.541C328.195 114.949 327.724 114.444 327.157 114.068L307.708 102.991Z" stroke="#ED6C50" stroke-width="2" stroke-miterlimit="10"/>
<path d="M329.033 77.2038C328.99 76.5201 328.788 75.8559 328.442 75.2642C328.097 74.6725 327.618 74.1696 327.043 73.7957L307.481 62.4923C306.863 62.1843 306.181 62.024 305.491 62.024C304.8 62.024 304.119 62.1843 303.5 62.4923L284.052 73.5685C283.476 73.936 282.999 74.4388 282.662 75.0328C282.325 75.6268 282.138 76.2941 282.119 76.9766L282.232 99.3562C282.275 100.04 282.478 100.704 282.823 101.296C283.169 101.887 283.648 102.39 284.223 102.764L303.785 114.068C304.403 114.376 305.084 114.536 305.775 114.536C306.466 114.536 307.147 114.376 307.765 114.068L327.214 102.991C327.79 102.624 328.267 102.121 328.604 101.527C328.941 100.933 329.127 100.266 329.147 99.5834L329.033 77.2038Z" stroke="#ED6C50" stroke-width="2" stroke-miterlimit="10"/>
<path d="M233.1 276.177C233.718 276.486 234.4 276.646 235.09 276.646C235.781 276.646 236.463 276.486 237.081 276.177L256.643 264.874C257.217 264.5 257.697 263.997 258.042 263.406C258.388 262.814 258.59 262.15 258.633 261.466L258.747 239.086C258.715 238.407 258.523 237.744 258.187 237.152C257.852 236.56 257.381 236.055 256.813 235.678L237.365 224.602C236.747 224.294 236.066 224.134 235.375 224.134C234.684 224.134 234.003 224.294 233.384 224.602L213.822 235.906C213.248 236.28 212.769 236.782 212.423 237.374C212.078 237.966 211.875 238.63 211.832 239.314L211.718 261.693C211.75 262.373 211.942 263.036 212.278 263.628C212.614 264.22 213.084 264.725 213.652 265.101L233.1 276.177Z" stroke="#ED6C50" stroke-width="2" stroke-miterlimit="10"/>
<path d="M167.078 265.101C166.46 264.793 165.779 264.633 165.088 264.633C164.397 264.633 163.716 264.793 163.098 265.101L143.536 276.405C142.961 276.779 142.482 277.281 142.136 277.873C141.791 278.465 141.589 279.129 141.546 279.813L141.432 302.192C141.464 302.872 141.655 303.535 141.991 304.127C142.327 304.719 142.798 305.224 143.365 305.6L162.814 316.677C163.432 316.985 164.113 317.145 164.804 317.145C165.495 317.145 166.176 316.985 166.794 316.677L186.356 305.373C186.931 304.999 187.41 304.496 187.755 303.905C188.101 303.313 188.303 302.649 188.346 301.965L188.46 279.586C188.428 278.906 188.237 278.243 187.901 277.651C187.565 277.059 187.094 276.554 186.527 276.177L167.078 265.101Z" stroke="#ED6C50" stroke-width="2" stroke-miterlimit="10"/>
<path d="M188.346 239.314C188.303 238.63 188.101 237.966 187.755 237.374C187.41 236.782 186.931 236.28 186.356 235.906L166.794 224.602C166.176 224.294 165.495 224.134 164.804 224.134C164.113 224.134 163.432 224.294 162.814 224.602L143.365 235.678C142.789 236.046 142.312 236.549 141.975 237.143C141.638 237.737 141.451 238.404 141.432 239.086L141.546 261.466C141.589 262.15 141.791 262.814 142.136 263.406C142.482 263.997 142.961 264.5 143.536 264.874L163.098 276.178C163.716 276.486 164.397 276.646 165.088 276.646C165.779 276.646 166.46 276.486 167.078 276.178L186.527 265.101C187.103 264.734 187.58 264.231 187.917 263.637C188.254 263.043 188.441 262.376 188.46 261.693L188.346 239.314Z" stroke="#ED6C50" stroke-width="2" stroke-miterlimit="10"/>
<path d="M221.386 244.823C221.953 244.447 222.424 243.942 222.76 243.35C223.096 242.758 223.287 242.095 223.319 241.415L223.319 218.809C223.275 218.132 223.079 217.473 222.744 216.883C222.409 216.293 221.945 215.786 221.386 215.4L202.051 204.097C201.443 203.789 200.771 203.629 200.089 203.629C199.408 203.629 198.735 203.789 198.127 204.097L178.793 215.4C178.225 215.777 177.755 216.282 177.419 216.874C177.083 217.466 176.891 218.129 176.859 218.809L176.859 241.415C176.903 242.092 177.1 242.751 177.435 243.341C177.77 243.931 178.234 244.438 178.793 244.823L198.127 256.127C198.735 256.435 199.408 256.595 200.089 256.595C200.771 256.595 201.443 256.435 202.051 256.127L221.386 244.823Z" stroke="#ED6C50" stroke-width="2" stroke-miterlimit="10"/>
<path d="M211.775 220.853C211.818 221.537 212.021 222.201 212.366 222.793C212.712 223.385 213.191 223.888 213.766 224.261L233.328 235.565C233.946 235.873 234.627 236.033 235.318 236.033C236.009 236.033 236.69 235.873 237.308 235.565L256.756 224.489C257.332 224.121 257.81 223.618 258.147 223.024C258.484 222.43 258.67 221.763 258.69 221.081L258.576 198.701C258.533 198.017 258.331 197.353 257.985 196.761C257.64 196.17 257.16 195.667 256.586 195.293L237.024 183.99C236.406 183.681 235.724 183.521 235.034 183.521C234.343 183.521 233.661 183.681 233.043 183.99L213.595 195.066C213.019 195.433 212.542 195.936 212.205 196.53C211.868 197.124 211.681 197.791 211.662 198.474L211.775 220.853Z" stroke="#ED6C50" stroke-width="2" stroke-miterlimit="10"/>
<path d="M167.078 183.99C166.46 183.682 165.779 183.521 165.088 183.521C164.397 183.521 163.716 183.682 163.098 183.99L143.536 195.293C142.961 195.667 142.482 196.17 142.136 196.761C141.791 197.353 141.589 198.017 141.546 198.701L141.375 221.137C141.407 221.817 141.598 222.48 141.934 223.072C142.27 223.664 142.741 224.169 143.308 224.545L162.757 235.622C163.375 235.93 164.056 236.09 164.747 236.09C165.438 236.09 166.119 235.93 166.737 235.622L186.299 224.318C186.874 223.944 187.353 223.441 187.699 222.85C188.044 222.258 188.247 221.594 188.29 220.91L188.403 198.531C188.372 197.851 188.18 197.188 187.844 196.596C187.508 196.004 187.037 195.499 186.47 195.123L167.078 183.99Z" stroke="#ED6C50" stroke-width="2" stroke-miterlimit="10"/>
<path d="M188.346 158.202C188.303 157.518 188.101 156.854 187.755 156.262C187.41 155.671 186.931 155.168 186.356 154.794L166.794 143.49C166.176 143.182 165.495 143.022 164.804 143.022C164.113 143.022 163.432 143.182 162.813 143.49L143.365 154.567C142.789 154.934 142.312 155.437 141.975 156.031C141.638 156.625 141.451 157.292 141.432 157.975L141.546 180.354C141.589 181.038 141.791 181.702 142.136 182.294C142.482 182.886 142.961 183.388 143.536 183.762L163.098 195.066C163.716 195.374 164.397 195.534 165.088 195.534C165.779 195.534 166.46 195.374 167.078 195.066L186.527 183.99C187.103 183.622 187.58 183.119 187.917 182.525C188.254 181.931 188.441 181.264 188.46 180.581L188.346 158.202Z" stroke="#ED6C50" stroke-width="2" stroke-miterlimit="10"/>
<path d="M221.386 163.768C221.953 163.392 222.424 162.887 222.76 162.295C223.096 161.703 223.287 161.04 223.319 160.36L223.319 137.754C223.275 137.077 223.079 136.418 222.744 135.828C222.409 135.238 221.945 134.731 221.386 134.346L202.051 123.042C201.443 122.734 200.771 122.574 200.089 122.574C199.408 122.574 198.735 122.734 198.127 123.042L178.793 134.346C178.225 134.722 177.755 135.227 177.419 135.819C177.083 136.411 176.891 137.074 176.859 137.754L176.859 160.36C176.903 161.037 177.1 161.696 177.435 162.286C177.77 162.876 178.234 163.383 178.793 163.768L198.127 175.072C198.735 175.38 199.408 175.54 200.089 175.54C200.771 175.54 201.443 175.38 202.051 175.072L221.386 163.768Z" stroke="#ED6C50" stroke-width="2" stroke-miterlimit="10"/>
<path d="M233.1 195.066C233.718 195.374 234.4 195.534 235.09 195.534C235.781 195.534 236.463 195.374 237.081 195.066L256.643 183.762C257.217 183.388 257.697 182.886 258.042 182.294C258.388 181.702 258.59 181.038 258.633 180.354L258.747 157.975C258.715 157.295 258.523 156.632 258.187 156.04C257.852 155.448 257.381 154.943 256.813 154.567L237.365 143.49C236.747 143.182 236.066 143.022 235.375 143.022C234.684 143.022 234.003 143.182 233.384 143.49L213.822 154.794C213.248 155.168 212.769 155.671 212.423 156.262C212.077 156.854 211.875 157.518 211.832 158.202L211.718 180.581C211.75 181.261 211.942 181.924 212.278 182.516C212.614 183.108 213.084 183.613 213.652 183.99L233.1 195.066Z" stroke="#ED6C50" stroke-width="2" stroke-miterlimit="10"/>
<path d="M249.079 174.788C248.512 175.164 248.041 175.669 247.705 176.261C247.369 176.853 247.178 177.516 247.146 178.196L247.146 200.803C247.19 201.48 247.386 202.138 247.721 202.728C248.056 203.318 248.52 203.825 249.079 204.211L268.414 215.514C269.022 215.822 269.694 215.982 270.376 215.982C271.058 215.982 271.73 215.822 272.338 215.514L291.672 204.211C292.24 203.834 292.711 203.329 293.046 202.737C293.382 202.145 293.574 201.482 293.606 200.803L293.606 178.196C293.562 177.519 293.365 176.861 293.03 176.27C292.695 175.68 292.231 175.173 291.672 174.788L272.338 163.484C271.73 163.177 271.058 163.016 270.376 163.016C269.694 163.016 269.022 163.177 268.414 163.484L249.079 174.788Z" stroke="#ED6C50" stroke-width="2" stroke-miterlimit="10"/>
<path d="M258.69 117.646C258.647 116.962 258.444 116.298 258.099 115.706C257.753 115.115 257.274 114.612 256.7 114.238L237.138 102.935C236.519 102.627 235.838 102.466 235.147 102.466C234.456 102.466 233.775 102.627 233.157 102.935L213.709 114.011C213.133 114.378 212.655 114.881 212.318 115.475C211.981 116.069 211.795 116.736 211.775 117.419L211.889 139.798C211.932 140.482 212.134 141.146 212.48 141.738C212.825 142.33 213.305 142.833 213.879 143.206L233.441 154.51C234.059 154.818 234.741 154.978 235.432 154.978C236.122 154.978 236.804 154.818 237.422 154.51L256.813 143.434C257.389 143.066 257.867 142.563 258.204 141.969C258.541 141.375 258.727 140.708 258.747 140.026L258.69 117.646Z" stroke="#ED6C50" stroke-width="2" stroke-miterlimit="10"/>
<path d="M291.672 123.213C292.24 122.836 292.71 122.331 293.046 121.739C293.382 121.147 293.574 120.484 293.606 119.804L293.606 97.1977C293.562 96.5207 293.365 95.8624 293.03 95.2722C292.695 94.6819 292.231 94.1751 291.672 93.7897L272.338 82.4863C271.73 82.1784 271.058 82.0179 270.376 82.0179C269.694 82.0179 269.022 82.1784 268.414 82.4863L249.079 93.7897C248.512 94.1662 248.041 94.671 247.705 95.263C247.369 95.8551 247.178 96.5179 247.146 97.1977L247.146 119.804C247.19 120.482 247.386 121.14 247.721 121.73C248.056 122.32 248.52 122.827 249.079 123.213L268.414 134.516C269.022 134.824 269.694 134.984 270.376 134.984C271.058 134.984 271.73 134.824 272.338 134.516L291.672 123.213Z" stroke="#ED6C50" stroke-width="2" stroke-miterlimit="10"/>
<path d="M303.387 154.51C304.005 154.818 304.686 154.978 305.377 154.978C306.068 154.978 306.749 154.818 307.367 154.51L326.929 143.206C327.504 142.833 327.983 142.33 328.329 141.738C328.674 141.146 328.877 140.482 328.92 139.798L329.033 117.419C329.002 116.739 328.81 116.076 328.474 115.484C328.138 114.892 327.667 114.387 327.1 114.011L307.652 102.935C307.033 102.627 306.352 102.466 305.661 102.466C304.97 102.466 304.289 102.627 303.671 102.935L284.109 114.238C283.534 114.612 283.055 115.115 282.71 115.706C282.364 116.298 282.162 116.962 282.119 117.646L282.005 140.026C282.037 140.705 282.228 141.368 282.564 141.96C282.9 142.552 283.371 143.057 283.938 143.434L303.387 154.51Z" stroke="#ED6C50" stroke-width="2" stroke-miterlimit="10"/>
<path d="M282.119 180.297C282.162 180.981 282.364 181.645 282.71 182.237C283.055 182.829 283.534 183.332 284.109 183.706L303.671 195.009C304.289 195.317 304.97 195.477 305.661 195.477C306.352 195.477 307.033 195.317 307.652 195.009L327.1 183.933C327.676 183.565 328.153 183.063 328.49 182.469C328.827 181.875 329.014 181.207 329.033 180.525L328.92 158.145C328.877 157.461 328.674 156.797 328.329 156.206C327.983 155.614 327.504 155.111 326.929 154.737L307.367 143.434C306.749 143.126 306.068 142.965 305.377 142.965C304.686 142.965 304.005 143.126 303.387 143.434L283.938 154.51C283.362 154.877 282.885 155.38 282.548 155.974C282.211 156.568 282.025 157.235 282.005 157.918L282.119 180.297Z" stroke="#ED6C50" stroke-width="2" stroke-miterlimit="10"/>
<path d="M307.652 183.99C307.033 183.681 306.352 183.521 305.661 183.521C304.97 183.521 304.289 183.681 303.671 183.99L284.109 195.293C283.534 195.667 283.055 196.17 282.71 196.761C282.364 197.353 282.162 198.017 282.119 198.701L282.005 221.081C282.037 221.76 282.228 222.423 282.564 223.015C282.9 223.607 283.371 224.112 283.938 224.489L303.444 235.565C304.062 235.873 304.743 236.033 305.434 236.033C306.125 236.033 306.806 235.873 307.424 235.565L326.986 224.261C327.561 223.888 328.04 223.385 328.385 222.793C328.731 222.201 328.933 221.537 328.976 220.853L329.09 198.474C329.058 197.794 328.867 197.131 328.531 196.539C328.195 195.947 327.724 195.442 327.157 195.066L307.652 183.99Z" stroke="#ED6C50" stroke-width="2" stroke-miterlimit="10"/>
<path d="M293.776 219.036C293.733 218.352 293.531 217.688 293.185 217.096C292.84 216.504 292.361 216.002 291.786 215.628L272.224 204.324C271.606 204.016 270.924 203.856 270.234 203.856C269.543 203.856 268.861 204.016 268.243 204.324L248.795 215.4C248.219 215.768 247.742 216.271 247.405 216.865C247.068 217.459 246.881 218.126 246.862 218.809L246.975 241.188C247.018 241.872 247.221 242.536 247.566 243.128C247.912 243.719 248.391 244.222 248.966 244.596L268.528 255.9C269.146 256.208 269.827 256.368 270.518 256.368C271.209 256.368 271.89 256.208 272.508 255.9L291.957 244.823C292.533 244.456 293.01 243.953 293.347 243.359C293.684 242.765 293.87 242.098 293.89 241.415L293.776 219.036Z" stroke="#ED6C50" stroke-width="2" stroke-miterlimit="10"/>
<path d="M223.433 178.423C223.39 177.739 223.187 177.075 222.842 176.484C222.496 175.892 222.017 175.389 221.442 175.015L201.881 163.712C201.262 163.404 200.581 163.243 199.89 163.243C199.199 163.243 198.518 163.404 197.9 163.712L178.452 174.788C177.876 175.155 177.398 175.658 177.061 176.252C176.724 176.846 176.538 177.513 176.518 178.196L176.632 200.575C176.675 201.259 176.877 201.923 177.223 202.515C177.568 203.107 178.048 203.61 178.622 203.983L198.184 215.287C198.802 215.595 199.484 215.755 200.175 215.755C200.865 215.755 201.547 215.595 202.165 215.287L221.613 204.211C222.189 203.843 222.667 203.341 223.004 202.746C223.341 202.152 223.527 201.485 223.547 200.803L223.433 178.423Z" stroke="#ED6C50" stroke-width="2" stroke-miterlimit="10"/>
<path d="M176.632 281.687C176.675 282.371 176.877 283.035 177.223 283.627C177.568 284.218 178.048 284.721 178.622 285.095L198.241 296.399C198.859 296.707 199.541 296.867 200.231 296.867C200.922 296.867 201.604 296.707 202.222 296.399L221.67 285.322C222.246 284.955 222.723 284.452 223.06 283.858C223.397 283.264 223.584 282.597 223.603 281.914L223.49 259.535C223.447 258.851 223.244 258.187 222.899 257.595C222.553 257.004 222.074 256.501 221.499 256.127L201.937 244.823C201.319 244.515 200.638 244.355 199.947 244.355C199.256 244.355 198.575 244.515 197.957 244.823L178.509 255.9C177.932 256.267 177.455 256.77 177.118 257.364C176.781 257.958 176.595 258.625 176.575 259.308L176.632 281.687Z" stroke="#ED6C50" stroke-width="2" stroke-miterlimit="10"/>
<path d="M246.975 160.076C247.018 160.76 247.221 161.424 247.566 162.016C247.912 162.608 248.391 163.111 248.966 163.484L268.528 174.788C269.146 175.096 269.827 175.256 270.518 175.256C271.209 175.256 271.89 175.096 272.508 174.788L291.957 163.712C292.533 163.344 293.01 162.841 293.347 162.247C293.684 161.653 293.87 160.986 293.89 160.304L293.776 137.924C293.733 137.24 293.531 136.576 293.185 135.984C292.84 135.393 292.361 134.89 291.786 134.516L272.224 123.213C271.606 122.905 270.924 122.744 270.234 122.744C269.543 122.744 268.861 122.905 268.243 123.213L248.795 134.289C248.219 134.656 247.742 135.159 247.405 135.753C247.068 136.347 246.881 137.014 246.862 137.697L246.975 160.076Z" stroke="#ED6C50" stroke-width="2" stroke-miterlimit="10"/>
<path d="M307.708 183.99C307.09 183.681 306.409 183.521 305.718 183.521C305.027 183.521 304.346 183.681 303.728 183.99L284.166 195.293C283.591 195.667 283.112 196.17 282.766 196.761C282.421 197.353 282.219 198.017 282.176 198.701L282.062 221.081C282.094 221.76 282.285 222.423 282.621 223.015C282.957 223.607 283.428 224.112 283.995 224.489L303.443 235.565C304.062 235.873 304.743 236.033 305.434 236.033C306.125 236.033 306.806 235.873 307.424 235.565L326.986 224.261C327.561 223.888 328.04 223.385 328.385 222.793C328.731 222.201 328.933 221.537 328.976 220.853L329.09 198.474C329.058 197.794 328.867 197.131 328.531 196.539C328.195 195.947 327.724 195.442 327.157 195.066L307.708 183.99Z" stroke="#ED6C50" stroke-width="2" stroke-miterlimit="10"/>
<path d="M329.033 158.202C328.99 157.518 328.788 156.854 328.442 156.262C328.097 155.671 327.618 155.168 327.043 154.794L307.481 143.49C306.863 143.182 306.181 143.022 305.491 143.022C304.8 143.022 304.119 143.182 303.5 143.49L284.052 154.567C283.476 154.934 282.999 155.437 282.662 156.031C282.325 156.625 282.138 157.292 282.119 157.975L282.232 180.354C282.275 181.038 282.478 181.702 282.823 182.294C283.169 182.886 283.648 183.388 284.223 183.762L303.785 195.009C304.403 195.317 305.084 195.477 305.775 195.477C306.466 195.477 307.147 195.317 307.765 195.009L327.214 183.933C327.79 183.565 328.267 183.063 328.604 182.469C328.941 181.875 329.127 181.207 329.147 180.525L329.033 158.202Z" stroke="#ED6C50" stroke-width="2" stroke-miterlimit="10"/>
<path d="M307.708 102.878C307.09 102.57 306.409 102.409 305.718 102.409C305.027 102.409 304.346 102.57 303.728 102.878L284.166 114.181C283.591 114.555 283.112 115.058 282.766 115.65C282.421 116.241 282.219 116.906 282.176 117.589L282.062 139.969C282.094 140.649 282.285 141.311 282.621 141.903C282.957 142.496 283.428 143 283.995 143.377L303.443 154.453C304.062 154.761 304.743 154.921 305.434 154.921C306.125 154.921 306.806 154.761 307.424 154.453L326.986 143.15C327.561 142.776 328.04 142.273 328.385 141.681C328.731 141.089 328.933 140.425 328.976 139.742L329.09 117.362C329.058 116.682 328.867 116.019 328.531 115.427C328.195 114.835 327.724 114.331 327.157 113.954L307.708 102.878Z" stroke="#ED6C50" stroke-width="2" stroke-miterlimit="10"/>
<path d="M329.033 77.0902C328.99 76.4065 328.788 75.7424 328.442 75.1507C328.097 74.5589 327.618 74.0561 327.043 73.6822L307.481 62.3788C306.863 62.0707 306.181 61.9104 305.491 61.9104C304.8 61.9104 304.119 62.0707 303.5 62.3788L284.052 73.4549C283.476 73.8225 282.999 74.3251 282.662 74.9191C282.325 75.5132 282.138 76.1805 282.119 76.863L282.232 99.2426C282.275 99.9263 282.478 100.59 282.823 101.182C283.169 101.774 283.648 102.277 284.223 102.651L303.785 113.954C304.403 114.262 305.084 114.422 305.775 114.422C306.466 114.422 307.147 114.262 307.765 113.954L327.214 102.878C327.79 102.51 328.267 102.008 328.604 101.414C328.941 100.82 329.127 100.152 329.147 99.4698L329.033 77.0902Z" stroke="#ED6C50" stroke-width="2" stroke-miterlimit="10"/>
<path d="M80.8125 244.823C81.38 244.447 81.8508 243.942 82.1867 243.35C82.5226 242.758 82.7142 242.095 82.746 241.415L82.746 218.809C82.7022 218.132 82.5055 217.473 82.1706 216.883C81.8358 216.293 81.3715 215.786 80.8125 215.401L61.478 204.097C60.87 203.789 60.1978 203.629 59.5161 203.629C58.8344 203.629 58.1623 203.789 57.5542 204.097L38.2197 215.401C37.6522 215.777 37.1814 216.282 36.8455 216.874C36.5096 217.466 36.3181 218.129 36.2863 218.809L36.2863 241.415C36.3301 242.092 36.5267 242.751 36.8616 243.341C37.1965 243.931 37.6608 244.438 38.2197 244.823L57.5542 256.127C58.1623 256.435 58.8344 256.595 59.5161 256.595C60.1978 256.595 60.87 256.435 61.478 256.127L80.8125 244.823Z" stroke="#ED6C50" stroke-width="2" stroke-miterlimit="10"/>
<path d="M92.5269 276.121C93.1451 276.429 93.8264 276.589 94.5172 276.589C95.208 276.589 95.8894 276.429 96.5075 276.121L116.07 264.817C116.644 264.443 117.123 263.941 117.469 263.349C117.814 262.757 118.017 262.093 118.06 261.409L118.174 239.03C118.142 238.35 117.95 237.687 117.614 237.095C117.278 236.503 116.808 235.998 116.24 235.622L96.7919 224.545C96.1737 224.237 95.4924 224.077 94.8016 224.077C94.1107 224.077 93.4294 224.237 92.8112 224.545L73.2493 235.849C72.6747 236.223 72.1954 236.726 71.8499 237.317C71.5043 237.909 71.302 238.573 71.259 239.257L71.1452 261.636C71.177 262.316 71.3686 262.979 71.7045 263.571C72.0404 264.163 72.5112 264.668 73.0787 265.045L92.5269 276.121Z" stroke="#ED6C50" stroke-width="2" stroke-miterlimit="10"/>
<path d="M108.506 255.843C107.939 256.219 107.468 256.724 107.132 257.316C106.796 257.908 106.605 258.571 106.573 259.251L106.573 281.858C106.617 282.535 106.813 283.193 107.148 283.783C107.483 284.373 107.947 284.88 108.506 285.266L127.841 296.569C128.449 296.877 129.121 297.037 129.803 297.037C130.484 297.037 131.157 296.877 131.765 296.569L151.099 285.266C151.667 284.889 152.137 284.384 152.473 283.792C152.809 283.2 153.001 282.537 153.033 281.858L153.033 259.251C152.989 258.574 152.792 257.915 152.457 257.325C152.122 256.735 151.658 256.228 151.099 255.843L131.765 244.539C131.157 244.231 130.484 244.071 129.803 244.071C129.121 244.071 128.449 244.231 127.841 244.539L108.506 255.843Z" stroke="#ED6C50" stroke-width="2" stroke-miterlimit="10"/>
<path d="M118.117 198.701C118.074 198.017 117.871 197.353 117.526 196.761C117.18 196.17 116.701 195.667 116.126 195.293L96.5644 183.99C95.9463 183.682 95.2649 183.521 94.5741 183.521C93.8833 183.521 93.202 183.682 92.5838 183.99L73.1356 195.066C72.5595 195.433 72.0822 195.936 71.7452 196.53C71.4082 197.124 71.2217 197.791 71.2021 198.474L71.3159 220.853C71.3589 221.537 71.5612 222.201 71.9068 222.793C72.2523 223.385 72.7315 223.888 73.3062 224.261L92.8681 235.565C93.4863 235.873 94.1677 236.033 94.8585 236.033C95.5493 236.033 96.2306 235.873 96.8488 235.565L116.297 224.489C116.873 224.121 117.35 223.618 117.687 223.024C118.024 222.43 118.211 221.763 118.23 221.081L118.117 198.701Z" stroke="#ED6C50" stroke-width="2" stroke-miterlimit="10"/>
<path d="M151.099 204.268C151.667 203.891 152.137 203.386 152.473 202.794C152.809 202.202 153.001 201.539 153.032 200.859L153.032 178.253C152.989 177.576 152.792 176.917 152.457 176.327C152.122 175.737 151.658 175.23 151.099 174.845L131.765 163.541C131.157 163.233 130.484 163.073 129.803 163.073C129.121 163.073 128.449 163.233 127.841 163.541L108.506 174.845C107.939 175.221 107.468 175.726 107.132 176.318C106.796 176.91 106.605 177.573 106.573 178.253L106.573 200.859C106.617 201.536 106.813 202.195 107.148 202.785C107.483 203.375 107.947 203.882 108.506 204.268L127.841 215.571C128.449 215.879 129.121 216.039 129.803 216.039C130.484 216.039 131.157 215.879 131.765 215.571L151.099 204.268Z" stroke="#ED6C50" stroke-width="2" stroke-miterlimit="10"/>
<path d="M162.814 235.565C163.432 235.873 164.113 236.033 164.804 236.033C165.495 236.033 166.176 235.873 166.794 235.565L186.356 224.261C186.931 223.888 187.41 223.385 187.755 222.793C188.101 222.201 188.303 221.537 188.346 220.853L188.46 198.474C188.428 197.794 188.237 197.131 187.901 196.539C187.565 195.947 187.094 195.442 186.527 195.066L167.078 183.99C166.46 183.682 165.779 183.521 165.088 183.521C164.397 183.521 163.716 183.682 163.098 183.99L143.536 195.293C142.961 195.667 142.482 196.17 142.136 196.761C141.791 197.353 141.589 198.017 141.546 198.701L141.432 221.081C141.464 221.76 141.655 222.423 141.991 223.015C142.327 223.607 142.798 224.112 143.365 224.489L162.814 235.565Z" stroke="#ED6C50" stroke-width="2" stroke-miterlimit="10"/>
<path d="M141.546 261.352C141.589 262.036 141.791 262.7 142.136 263.292C142.482 263.884 142.961 264.387 143.536 264.76L163.098 276.064C163.716 276.372 164.397 276.532 165.088 276.532C165.779 276.532 166.46 276.372 167.078 276.064L186.527 264.988C187.103 264.62 187.58 264.118 187.917 263.523C188.254 262.929 188.441 262.262 188.46 261.58L188.346 239.2C188.303 238.516 188.101 237.852 187.755 237.26C187.41 236.669 186.931 236.166 186.356 235.792L166.794 224.489C166.176 224.181 165.495 224.02 164.804 224.02C164.113 224.02 163.432 224.181 162.814 224.489L143.365 235.565C142.789 235.932 142.312 236.435 141.975 237.029C141.638 237.623 141.451 238.29 141.432 238.973L141.546 261.352Z" stroke="#ED6C50" stroke-width="2" stroke-miterlimit="10"/>
<path d="M167.078 265.044C166.46 264.736 165.779 264.576 165.088 264.576C164.397 264.576 163.716 264.736 163.098 265.044L143.536 276.348C142.961 276.722 142.482 277.225 142.136 277.816C141.791 278.408 141.589 279.072 141.546 279.756L141.432 302.136C141.464 302.815 141.655 303.478 141.991 304.07C142.327 304.662 142.798 305.167 143.365 305.544L162.814 316.62C163.432 316.928 164.113 317.088 164.804 317.088C165.495 317.088 166.176 316.928 166.794 316.62L186.356 305.316C186.931 304.942 187.41 304.44 187.755 303.848C188.101 303.256 188.303 302.592 188.346 301.908L188.46 279.529C188.428 278.849 188.237 278.186 187.901 277.594C187.565 277.002 187.094 276.497 186.527 276.121L167.078 265.044Z" stroke="#ED6C50" stroke-width="2" stroke-miterlimit="10"/>
<path d="M221.442 244.823C222.01 244.447 222.481 243.942 222.817 243.35C223.153 242.758 223.344 242.095 223.376 241.415L223.376 218.809C223.332 218.132 223.135 217.473 222.801 216.883C222.466 216.293 222.001 215.786 221.442 215.4L202.108 204.097C201.5 203.789 200.828 203.629 200.146 203.629C199.464 203.629 198.792 203.789 198.184 204.097L178.85 215.4C178.282 215.777 177.811 216.282 177.476 216.874C177.14 217.466 176.948 218.129 176.916 218.809L176.916 241.415C176.96 242.092 177.157 242.751 177.492 243.341C177.826 243.931 178.291 244.438 178.85 244.823L198.184 256.127C198.792 256.435 199.464 256.595 200.146 256.595C200.828 256.595 201.5 256.435 202.108 256.127L221.442 244.823Z" stroke="#ED6C50" stroke-width="2" stroke-miterlimit="10"/>
<path d="M233.157 276.121C233.775 276.429 234.456 276.589 235.147 276.589C235.838 276.589 236.519 276.429 237.138 276.121L256.7 264.817C257.274 264.443 257.753 263.941 258.099 263.349C258.444 262.757 258.647 262.093 258.69 261.409L258.804 239.03C258.772 238.35 258.58 237.687 258.244 237.095C257.908 236.503 257.438 235.998 256.87 235.622L237.422 224.545C236.804 224.237 236.122 224.077 235.432 224.077C234.741 224.077 234.059 224.237 233.441 224.545L213.879 235.849C213.305 236.223 212.825 236.726 212.48 237.317C212.134 237.909 211.932 238.573 211.889 239.257L211.775 261.636C211.807 262.316 211.999 262.979 212.335 263.571C212.67 264.163 213.141 264.668 213.709 265.044L233.157 276.121Z" stroke="#ED6C50" stroke-width="2" stroke-miterlimit="10"/>
<path d="M151.099 244.71C151.667 244.333 152.137 243.828 152.473 243.236C152.809 242.644 153.001 241.982 153.033 241.302L153.033 218.695C152.989 218.018 152.792 217.36 152.457 216.769C152.122 216.179 151.658 215.672 151.099 215.287L131.765 203.983C131.157 203.676 130.484 203.515 129.803 203.515C129.121 203.515 128.449 203.676 127.841 203.983L108.506 215.287C107.939 215.663 107.468 216.168 107.132 216.76C106.796 217.352 106.605 218.015 106.573 218.695L106.573 241.302C106.617 241.979 106.813 242.637 107.148 243.227C107.483 243.818 107.947 244.324 108.506 244.71L127.841 256.013C128.449 256.321 129.121 256.482 129.803 256.482C130.484 256.482 131.157 256.321 131.765 256.013L151.099 244.71Z" stroke="#ED6C50" stroke-width="2" stroke-miterlimit="10"/>
<path d="M178.793 255.9C178.225 256.276 177.755 256.781 177.419 257.373C177.083 257.965 176.891 258.628 176.859 259.308L176.859 281.914C176.903 282.591 177.1 283.25 177.435 283.84C177.77 284.43 178.234 284.937 178.793 285.322L198.127 296.626C198.735 296.934 199.408 297.094 200.089 297.094C200.771 297.094 201.443 296.934 202.051 296.626L221.386 285.322C221.953 284.946 222.424 284.441 222.76 283.849C223.096 283.257 223.287 282.594 223.319 281.914L223.319 259.308C223.275 258.631 223.079 257.972 222.744 257.382C222.409 256.792 221.945 256.285 221.386 255.9L202.051 244.596C201.443 244.288 200.771 244.128 200.089 244.128C199.408 244.128 198.735 244.288 198.127 244.596L178.793 255.9Z" stroke="#ED6C50" stroke-width="2" stroke-miterlimit="10"/>
<path d="M22.2404 154.51C22.8585 154.818 23.5399 154.978 24.2307 154.978C24.9215 154.978 25.6029 154.818 26.221 154.51L45.783 143.206C46.3576 142.833 46.8368 142.33 47.1824 141.738C47.5279 141.146 47.7303 140.482 47.7733 139.798L47.887 117.419C47.8552 116.739 47.6637 116.076 47.3278 115.484C46.9919 114.892 46.5211 114.387 45.9536 114.011L26.5053 102.935C25.8872 102.627 25.2058 102.466 24.515 102.466C23.8242 102.466 23.1429 102.627 22.5247 102.935L2.96275 114.238C2.38811 114.612 1.9089 115.115 1.56334 115.707C1.21778 116.298 1.01543 116.962 0.972435 117.646L0.858733 140.026C0.890489 140.705 1.08205 141.368 1.41795 141.96C1.75385 142.552 2.22463 143.057 2.79216 143.434L22.2404 154.51Z" stroke="#ED6C50" stroke-width="2" stroke-miterlimit="10"/>
<path d="M0.972437 180.298C1.01544 180.981 1.21779 181.645 1.56335 182.237C1.90891 182.829 2.38812 183.332 2.96275 183.706L22.5247 195.009C23.1429 195.317 23.8242 195.477 24.515 195.477C25.2058 195.477 25.8872 195.317 26.5053 195.009L45.9536 183.933C46.5296 183.565 47.007 183.063 47.344 182.469C47.681 181.875 47.8674 181.207 47.887 180.525L47.7733 158.145C47.7303 157.461 47.5279 156.797 47.1824 156.206C46.8368 155.614 46.3576 155.111 45.783 154.737L26.221 143.434C25.6029 143.126 24.9215 142.965 24.2307 142.965C23.5399 142.965 22.8585 143.126 22.2404 143.434L2.79216 154.51C2.21607 154.877 1.73874 155.38 1.40174 155.974C1.06474 156.568 0.878327 157.235 0.858731 157.918L0.972437 180.298Z" stroke="#ED6C50" stroke-width="2" stroke-miterlimit="10"/>
<path d="M26.5622 183.99C25.944 183.682 25.2627 183.521 24.5719 183.521C23.8811 183.521 23.1997 183.682 22.5815 183.99L3.01961 195.293C2.44497 195.667 1.96577 196.17 1.6202 196.761C1.27464 197.353 1.07229 198.017 1.0293 198.701L0.915558 221.081C0.947315 221.76 1.13891 222.423 1.47481 223.015C1.81072 223.607 2.28149 224.112 2.84902 224.489L22.2972 235.565C22.9154 235.873 23.5967 236.033 24.2875 236.033C24.9783 236.033 25.6597 235.873 26.2779 235.565L45.8398 224.261C46.4145 223.888 46.8937 223.385 47.2392 222.793C47.5848 222.201 47.7871 221.537 47.8301 220.853L47.9439 198.474C47.9121 197.794 47.7205 197.131 47.3846 196.539C47.0487 195.947 46.5779 195.442 46.0104 195.066L26.5622 183.99Z" stroke="#ED6C50" stroke-width="2" stroke-miterlimit="10"/>
<path d="M80.8694 163.768C81.4369 163.392 81.9077 162.887 82.2436 162.295C82.5795 161.703 82.7711 161.04 82.8028 160.36L82.8028 137.754C82.7591 137.077 82.5624 136.418 82.2275 135.828C81.8927 135.238 81.4283 134.731 80.8694 134.346L61.5349 123.042C60.9268 122.734 60.2547 122.574 59.573 122.574C58.8913 122.574 58.2192 122.734 57.6111 123.042L38.2766 134.346C37.7091 134.722 37.2383 135.227 36.9024 135.819C36.5665 136.411 36.3749 137.074 36.3432 137.754L36.3432 160.36C36.3869 161.037 36.5836 161.696 36.9185 162.286C37.2533 162.876 37.7177 163.383 38.2766 163.768L57.6111 175.072C58.2192 175.38 58.8913 175.54 59.573 175.54C60.2547 175.54 60.9268 175.38 61.5349 175.072L80.8694 163.768Z" stroke="#ED6C50" stroke-width="2" stroke-miterlimit="10"/>
<path d="M92.5838 195.066C93.2019 195.374 93.8833 195.534 94.5741 195.534C95.2649 195.534 95.9463 195.374 96.5644 195.066L116.126 183.762C116.701 183.388 117.18 182.886 117.526 182.294C117.871 181.702 118.074 181.038 118.117 180.354L118.23 157.975C118.199 157.295 118.007 156.632 117.671 156.04C117.335 155.448 116.865 154.943 116.297 154.567L96.8488 143.49C96.2306 143.182 95.5493 143.022 94.8584 143.022C94.1676 143.022 93.4863 143.182 92.8681 143.49L73.3062 154.794C72.7315 155.168 72.2523 155.671 71.9067 156.262C71.5612 156.854 71.3588 157.518 71.3158 158.202L71.2021 180.582C71.2339 181.261 71.4255 181.924 71.7614 182.516C72.0973 183.108 72.568 183.613 73.1356 183.99L92.5838 195.066Z" stroke="#ED6C50" stroke-width="2" stroke-miterlimit="10"/>
<path d="M71.259 220.853C71.302 221.537 71.5043 222.201 71.8499 222.793C72.1954 223.385 72.6747 223.888 73.2493 224.261L92.8112 235.565C93.4294 235.873 94.1107 236.033 94.8016 236.033C95.4924 236.033 96.1737 235.873 96.7919 235.565L116.24 224.489C116.816 224.121 117.294 223.618 117.631 223.024C117.968 222.43 118.154 221.763 118.174 221.081L118.06 198.701C118.017 198.017 117.814 197.353 117.469 196.761C117.123 196.17 116.644 195.667 116.07 195.293L96.5075 183.99C95.8894 183.682 95.208 183.521 94.5172 183.521C93.8264 183.521 93.1451 183.682 92.5269 183.99L73.0787 195.066C72.5026 195.433 72.0252 195.936 71.6882 196.53C71.3512 197.124 71.1648 197.791 71.1452 198.474L71.259 220.853Z" stroke="#ED6C50" stroke-width="2" stroke-miterlimit="10"/>
<path d="M38.2766 215.344C37.7091 215.72 37.2383 216.225 36.9024 216.817C36.5665 217.409 36.3749 218.072 36.3432 218.752L36.3432 241.359C36.3869 242.036 36.5836 242.694 36.9185 243.284C37.2533 243.874 37.7177 244.381 38.2766 244.767L57.6111 256.07C58.2192 256.378 58.8913 256.538 59.573 256.538C60.2547 256.538 60.9268 256.378 61.5349 256.07L80.8694 244.767C81.4369 244.39 81.9077 243.885 82.2436 243.293C82.5795 242.701 82.7711 242.038 82.8028 241.359L82.8028 218.752C82.7591 218.075 82.5624 217.416 82.2275 216.826C81.8927 216.236 81.4283 215.729 80.8694 215.344L61.5349 204.04C60.9268 203.732 60.2547 203.572 59.573 203.572C58.8913 203.572 58.2192 203.732 57.6111 204.04L38.2766 215.344Z" stroke="#ED6C50" stroke-width="2" stroke-miterlimit="10"/>
<path d="M92.5838 276.178C93.202 276.486 93.8833 276.646 94.5741 276.646C95.2649 276.646 95.9463 276.486 96.5644 276.178L116.126 264.874C116.701 264.5 117.18 263.997 117.526 263.406C117.871 262.814 118.074 262.15 118.117 261.466L118.23 239.086C118.199 238.407 118.007 237.744 117.671 237.152C117.335 236.56 116.865 236.055 116.297 235.678L96.8488 224.602C96.2306 224.294 95.5493 224.134 94.8585 224.134C94.1676 224.134 93.4863 224.294 92.8681 224.602L73.3062 235.906C72.7315 236.28 72.2523 236.782 71.9068 237.374C71.5612 237.966 71.3589 238.63 71.3159 239.314L71.2021 261.693C71.2339 262.373 71.4255 263.036 71.7614 263.628C72.0973 264.22 72.5681 264.725 73.1356 265.101L92.5838 276.178Z" stroke="#ED6C50" stroke-width="2" stroke-miterlimit="10"/>
<path d="M57.4974 215.287C58.1155 215.595 58.7969 215.755 59.4877 215.755C60.1785 215.755 60.8598 215.595 61.478 215.287L81.04 203.983C81.6146 203.61 82.0938 203.107 82.4394 202.515C82.7849 201.923 82.9873 201.259 83.0303 200.575L83.144 178.196C83.1122 177.516 82.9207 176.853 82.5848 176.261C82.2489 175.669 81.7781 175.164 81.2106 174.788L61.7623 163.712C61.1442 163.404 60.4628 163.243 59.772 163.243C59.0812 163.243 58.3998 163.404 57.7817 163.712L38.2197 175.015C37.6451 175.389 37.1659 175.892 36.8203 176.484C36.4748 177.075 36.2724 177.739 36.2294 178.423L36.1157 200.803C36.1475 201.482 36.339 202.145 36.6749 202.737C37.0108 203.329 37.4816 203.834 38.0491 204.211L57.4974 215.287Z" stroke="#ED6C50" stroke-width="2" stroke-miterlimit="10"/>
<path d="M71.259 58.7435C71.302 59.4272 71.5043 60.0914 71.8499 60.6831C72.1954 61.2748 72.6746 61.7777 73.2493 62.1516L92.8112 73.455C93.4294 73.763 94.1107 73.9233 94.8015 73.9233C95.4924 73.9233 96.1737 73.763 96.7919 73.455L116.24 62.3788C116.816 62.0113 117.294 61.5086 117.631 60.9146C117.968 60.3206 118.154 59.6532 118.174 58.9707L118.06 36.5912C118.017 35.9075 117.814 35.2433 117.469 34.6516C117.123 34.0599 116.644 33.557 116.07 33.1831L96.5075 21.8797C95.8894 21.5717 95.208 21.4113 94.5172 21.4113C93.8264 21.4113 93.145 21.5717 92.5269 21.8797L73.0787 32.9559C72.5026 33.3234 72.0252 33.8261 71.6882 34.4202C71.3512 35.0142 71.1648 35.6815 71.1452 36.364L71.259 58.7435Z" stroke="#ED6C50" stroke-width="2" stroke-miterlimit="10"/>
<path d="M38.2766 53.2338C37.7091 53.6104 37.2383 54.1151 36.9024 54.7072C36.5665 55.2993 36.3749 55.9621 36.3432 56.6419L36.3432 79.2486C36.3869 79.9256 36.5836 80.584 36.9185 81.1742C37.2533 81.7645 37.7177 82.2713 38.2766 82.6567L57.6111 93.9601C58.2192 94.268 58.8913 94.4284 59.573 94.4284C60.2547 94.4284 60.9268 94.268 61.5349 93.9601L80.8694 82.6567C81.4369 82.2801 81.9077 81.7754 82.2436 81.1833C82.5795 80.5912 82.7711 79.9284 82.8028 79.2486L82.8028 56.6419C82.7591 55.9649 82.5624 55.3066 82.2275 54.7163C81.8927 54.1261 81.4283 53.6192 80.8694 53.2338L61.5349 41.9304C60.9268 41.6225 60.2547 41.4621 59.573 41.4621C58.8913 41.4621 58.2192 41.6225 57.6111 41.9304L38.2766 53.2338Z" stroke="#ED6C50" stroke-width="2" stroke-miterlimit="10"/>
<path d="M47.8301 77.2038C47.7871 76.5201 47.5848 75.8559 47.2392 75.2642C46.8936 74.6725 46.4144 74.1696 45.8398 73.7957L26.2778 62.4923C25.6597 62.1843 24.9783 62.024 24.2875 62.024C23.5967 62.024 22.9153 62.1843 22.2972 62.4923L2.84899 73.5685C2.2729 73.936 1.79554 74.4388 1.45854 75.0328C1.12154 75.6268 0.935122 76.2941 0.915526 76.9766L1.02927 99.3562C1.07227 100.04 1.27462 100.704 1.62018 101.296C1.96574 101.887 2.44495 102.39 3.01958 102.764L22.5815 114.068C23.1997 114.376 23.881 114.536 24.5718 114.536C25.2626 114.536 25.944 114.376 26.5622 114.068L46.0104 102.991C46.5865 102.624 47.0638 102.121 47.4008 101.527C47.7378 100.933 47.9243 100.266 47.9438 99.5834L47.8301 77.2038Z" stroke="#ED6C50" stroke-width="2" stroke-miterlimit="10"/>
<path d="M92.5838 114.011C93.2019 114.319 93.8833 114.479 94.5741 114.479C95.2649 114.479 95.9463 114.319 96.5644 114.011L116.126 102.707C116.701 102.334 117.18 101.831 117.526 101.239C117.871 100.647 118.074 99.9831 118.117 99.2994L118.23 76.9198C118.199 76.24 118.007 75.5772 117.671 74.9852C117.335 74.3931 116.865 73.8883 116.297 73.5117L96.8488 62.4356C96.2306 62.1275 95.5493 61.9672 94.8584 61.9672C94.1676 61.9672 93.4863 62.1275 92.8681 62.4356L73.3062 73.739C72.7315 74.1129 72.2523 74.6158 71.9067 75.2075C71.5612 75.7992 71.3588 76.4633 71.3158 77.147L71.2021 99.5266C71.2339 100.206 71.4255 100.869 71.7614 101.461C72.0973 102.053 72.568 102.558 73.1356 102.935L92.5838 114.011Z" stroke="#ED6C50" stroke-width="2" stroke-miterlimit="10"/>
<path d="M71.259 139.855C71.302 140.539 71.5043 141.203 71.8499 141.795C72.1954 142.387 72.6746 142.889 73.2493 143.263L92.8112 154.567C93.4294 154.875 94.1107 155.035 94.8015 155.035C95.4924 155.035 96.1737 154.875 96.7919 154.567L116.24 143.49C116.816 143.123 117.294 142.62 117.631 142.026C117.968 141.432 118.154 140.765 118.174 140.082L118.06 117.703C118.017 117.019 117.814 116.355 117.469 115.763C117.123 115.172 116.644 114.669 116.07 114.295L96.5075 102.991C95.8894 102.683 95.208 102.523 94.5172 102.523C93.8264 102.523 93.145 102.683 92.5269 102.991L73.0787 114.068C72.5026 114.435 72.0252 114.938 71.6882 115.532C71.3512 116.126 71.1648 116.793 71.1452 117.476L71.259 139.855Z" stroke="#ED6C50" stroke-width="2" stroke-miterlimit="10"/>
<path d="M38.2766 134.289C37.7091 134.665 37.2383 135.17 36.9024 135.762C36.5665 136.354 36.3749 137.017 36.3432 137.697L36.3432 160.304C36.3869 160.981 36.5836 161.639 36.9185 162.229C37.2533 162.819 37.7177 163.326 38.2766 163.712L57.6111 175.015C58.2192 175.323 58.8913 175.483 59.573 175.483C60.2547 175.483 60.9268 175.323 61.5349 175.015L80.8694 163.712C81.4369 163.335 81.9077 162.83 82.2436 162.238C82.5795 161.646 82.7711 160.983 82.8028 160.304L82.8028 137.697C82.7591 137.02 82.5624 136.361 82.2275 135.771C81.8927 135.181 81.4283 134.674 80.8694 134.289L61.5349 122.985C60.9268 122.677 60.2547 122.517 59.573 122.517C58.8913 122.517 58.2192 122.677 57.6111 122.985L38.2766 134.289Z" stroke="#ED6C50" stroke-width="2" stroke-miterlimit="10"/>
<path d="M26.5622 102.991C25.944 102.683 25.2627 102.523 24.5719 102.523C23.8811 102.523 23.1997 102.683 22.5815 102.991L3.01961 114.295C2.44497 114.669 1.96577 115.172 1.6202 115.763C1.27464 116.355 1.07229 117.019 1.0293 117.703L0.915558 140.082C0.947315 140.762 1.13891 141.425 1.47481 142.017C1.81072 142.609 2.28149 143.114 2.84902 143.491L22.2972 154.567C22.9154 154.875 23.5967 155.035 24.2875 155.035C24.9783 155.035 25.6597 154.875 26.2779 154.567L45.8398 143.263C46.4145 142.889 46.8937 142.387 47.2392 141.795C47.5848 141.203 47.7871 140.539 47.8301 139.855L47.9439 117.476C47.9121 116.796 47.7205 116.133 47.3846 115.541C47.0487 114.949 46.5779 114.444 46.0104 114.068L26.5622 102.991Z" stroke="#ED6C50" stroke-width="2" stroke-miterlimit="10"/>
<path d="M0.972437 180.354C1.01544 181.038 1.21779 181.702 1.56335 182.294C1.90891 182.886 2.38812 183.388 2.96275 183.762L22.5247 195.066C23.1429 195.374 23.8242 195.534 24.515 195.534C25.2058 195.534 25.8872 195.374 26.5053 195.066L45.9536 183.99C46.5296 183.622 47.007 183.119 47.344 182.525C47.681 181.931 47.8674 181.264 47.887 180.582L47.7733 158.202C47.7303 157.518 47.5279 156.854 47.1824 156.262C46.8368 155.671 46.3576 155.168 45.783 154.794L26.221 143.49C25.6029 143.182 24.9215 143.022 24.2307 143.022C23.5399 143.022 22.8585 143.182 22.2404 143.49L2.79216 154.567C2.21607 154.934 1.73874 155.437 1.40174 156.031C1.06474 156.625 0.878327 157.292 0.858731 157.975L0.972437 180.354Z" stroke="#ED6C50" stroke-width="2" stroke-miterlimit="10"/>
<path d="M36.1726 119.577C36.2156 120.261 36.4179 120.925 36.7635 121.517C37.109 122.109 37.5882 122.611 38.1629 122.985L57.7817 134.289C58.3998 134.597 59.0812 134.757 59.772 134.757C60.4628 134.757 61.1442 134.597 61.7623 134.289L81.2106 123.213C81.7866 122.845 82.264 122.342 82.601 121.748C82.938 121.154 83.1244 120.487 83.144 119.804L83.0303 97.425C82.9873 96.7413 82.7849 96.0771 82.4394 95.4854C82.0938 94.8937 81.6146 94.3908 81.04 94.0169L61.478 82.7135C60.8598 82.4055 60.1785 82.2451 59.4877 82.2451C58.7969 82.2451 58.1155 82.4055 57.4974 82.7135L38.0491 93.7897C37.473 94.1572 36.9957 94.6599 36.6587 95.2539C36.3217 95.8479 36.1353 96.5152 36.1157 97.1977L36.1726 119.577Z" stroke="#ED6C50" stroke-width="2" stroke-miterlimit="10"/>
<path d="M2.84902 195.179C2.28149 195.556 1.81071 196.061 1.47481 196.653C1.13891 197.245 0.94731 197.908 0.915553 198.587L0.915555 221.194C0.95932 221.871 1.15599 222.53 1.49085 223.12C1.8257 223.71 2.29006 224.217 2.84902 224.602L22.1835 235.906C22.7916 236.214 23.4637 236.374 24.1454 236.374C24.8271 236.374 25.4992 236.214 26.1073 235.906L45.4417 224.602C46.0093 224.226 46.4801 223.721 46.816 223.129C47.1519 222.537 47.3435 221.874 47.3752 221.194L47.3752 198.587C47.3314 197.91 47.1347 197.252 46.7999 196.662C46.465 196.072 46.0007 195.565 45.4417 195.179L26.1073 183.876C25.4992 183.568 24.8271 183.408 24.1454 183.408C23.4636 183.408 22.7916 183.568 22.1835 183.876L2.84902 195.179Z" stroke="#ED6C50" stroke-width="2" stroke-miterlimit="10"/>
<path d="M57.1562 256.013C57.7744 256.321 58.4557 256.482 59.1465 256.482C59.8373 256.482 60.5187 256.321 61.1369 256.013L80.6988 244.71C81.2734 244.336 81.7526 243.833 82.0982 243.241C82.4438 242.65 82.6461 241.985 82.6891 241.302L82.8028 218.922C82.7711 218.242 82.5795 217.58 82.2436 216.987C81.9077 216.395 81.4369 215.891 80.8694 215.514L61.4212 204.438C60.803 204.13 60.1217 203.97 59.4309 203.97C58.7401 203.97 58.0587 204.13 57.4406 204.438L37.8786 215.741C37.304 216.115 36.8247 216.618 36.4792 217.21C36.1336 217.801 35.9313 218.466 35.8883 219.149L35.7745 241.529C35.8063 242.209 35.9979 242.871 36.3338 243.464C36.6697 244.056 37.1405 244.56 37.708 244.937L57.1562 256.013Z" stroke="#ED6C50" stroke-width="2" stroke-miterlimit="10"/>
<path d="M73.2493 235.678C72.6818 236.055 72.211 236.56 71.8751 237.152C71.5392 237.744 71.3476 238.407 71.3159 239.086L71.3159 261.693C71.3596 262.37 71.5563 263.029 71.8912 263.619C72.226 264.209 72.6904 264.716 73.2493 265.101L92.5838 276.405C93.1919 276.713 93.864 276.873 94.5457 276.873C95.2274 276.873 95.8995 276.713 96.5076 276.405L115.842 265.101C116.41 264.725 116.88 264.22 117.216 263.628C117.552 263.036 117.744 262.373 117.776 261.693L117.776 239.086C117.732 238.409 117.535 237.751 117.2 237.161C116.865 236.571 116.401 236.064 115.842 235.678L96.5076 224.375C95.8995 224.067 95.2274 223.907 94.5457 223.907C93.864 223.907 93.1919 224.067 92.5838 224.375L73.2493 235.678Z" stroke="#ED6C50" stroke-width="2" stroke-miterlimit="10"/>
<path d="M61.5349 204.381C60.9167 204.073 60.2354 203.913 59.5445 203.913C58.8537 203.913 58.1724 204.073 57.5542 204.381L37.9923 215.685C37.4177 216.058 36.9385 216.561 36.5929 217.153C36.2473 217.745 36.045 218.409 36.002 219.093L35.8882 241.472C35.92 242.152 36.1116 242.815 36.4475 243.407C36.7834 243.999 37.2542 244.504 37.8217 244.88L57.2699 255.956C57.8881 256.264 58.5694 256.425 59.2602 256.425C59.951 256.425 60.6324 256.264 61.2505 255.956L80.8125 244.653C81.3871 244.279 81.8664 243.776 82.2119 243.184C82.5575 242.593 82.7598 241.929 82.8028 241.245L82.9166 218.865C82.8848 218.186 82.6932 217.523 82.3573 216.931C82.0214 216.339 81.5506 215.834 80.9831 215.457L61.5349 204.381Z" stroke="#ED6C50" stroke-width="2" stroke-miterlimit="10"/>
<path d="M2.90587 195.179C2.33834 195.556 1.86756 196.061 1.53166 196.653C1.19576 197.245 1.00416 197.908 0.972407 198.587L0.972409 221.194C1.01617 221.871 1.21288 222.53 1.54774 223.12C1.88259 223.71 2.34691 224.217 2.90587 224.602L22.2404 235.906C22.8484 236.214 23.5205 236.374 24.2023 236.374C24.884 236.374 25.5561 236.214 26.1641 235.906L45.4986 224.602C46.0662 224.226 46.5369 223.721 46.8728 223.129C47.2087 222.537 47.4003 221.874 47.4321 221.194L47.4321 198.587C47.3883 197.91 47.1916 197.252 46.8568 196.662C46.5219 196.072 46.0576 195.565 45.4986 195.179L26.1641 183.876C25.5561 183.568 24.884 183.408 24.2023 183.408C23.5205 183.408 22.8484 183.568 22.2404 183.876L2.90587 195.179Z" stroke="#ED6C50" stroke-width="2" stroke-miterlimit="10"/>
<path d="M131.708 244.937C131.09 244.629 130.408 244.469 129.717 244.469C129.027 244.469 128.345 244.629 127.727 244.937L108.165 256.24C107.59 256.614 107.111 257.117 106.766 257.709C106.42 258.301 106.218 258.965 106.175 259.648L106.061 282.028C106.093 282.708 106.284 283.371 106.62 283.963C106.956 284.555 107.427 285.06 107.995 285.436L127.443 296.512C128.061 296.82 128.742 296.981 129.433 296.981C130.124 296.981 130.805 296.82 131.423 296.512L151.042 285.209C151.617 284.835 152.096 284.332 152.442 283.74C152.787 283.149 152.99 282.484 153.033 281.801L153.146 259.421C153.115 258.741 152.923 258.079 152.587 257.487C152.251 256.894 151.78 256.39 151.213 256.013L131.708 244.937Z" stroke="#ED6C50" stroke-width="2" stroke-miterlimit="10"/>
<path d="M45.3849 224.659C45.9524 224.283 46.4232 223.778 46.7591 223.186C47.095 222.594 47.2866 221.931 47.3183 221.251L47.3183 198.644C47.2746 197.967 47.0779 197.309 46.743 196.719C46.4082 196.128 45.9439 195.622 45.3849 195.236L26.0504 183.933C25.4424 183.625 24.7702 183.464 24.0885 183.464C23.4068 183.464 22.7347 183.625 22.1266 183.933L2.79216 195.236C2.22463 195.613 1.75385 196.117 1.41795 196.71C1.08205 197.302 0.890489 197.964 0.858732 198.644L0.858734 221.251C0.902499 221.928 1.09917 222.586 1.43402 223.177C1.76888 223.767 2.2332 224.274 2.79216 224.659L22.1266 235.962C22.7347 236.27 23.4068 236.431 24.0885 236.431C24.7702 236.431 25.4424 236.27 26.0504 235.962L45.3849 224.659Z" stroke="#ED6C50" stroke-width="2" stroke-miterlimit="10"/>
<path d="M57.0993 255.956C57.7175 256.264 58.3988 256.425 59.0897 256.425C59.7805 256.425 60.4618 256.264 61.08 255.956L80.6419 244.653C81.2166 244.279 81.6958 243.776 82.0413 243.184C82.3869 242.593 82.5892 241.929 82.6322 241.245L82.8028 218.865C82.7711 218.186 82.5795 217.523 82.2436 216.931C81.9077 216.339 81.4369 215.834 80.8694 215.457L61.4212 204.381C60.803 204.073 60.1217 203.913 59.4309 203.913C58.7401 203.913 58.0587 204.073 57.4406 204.381L37.8786 215.685C37.304 216.058 36.8247 216.561 36.4792 217.153C36.1336 217.745 35.9313 218.409 35.8883 219.093L35.7745 241.472C35.8063 242.152 35.9979 242.815 36.3338 243.407C36.6697 243.999 37.1405 244.504 37.708 244.88L57.0993 255.956Z" stroke="#ED6C50" stroke-width="2" stroke-miterlimit="10"/>
<path d="M73.1356 235.678C72.568 236.055 72.0973 236.56 71.7614 237.152C71.4255 237.744 71.2339 238.407 71.2021 239.086L71.2021 261.693C71.2459 262.37 71.4426 263.029 71.7774 263.619C72.1123 264.209 72.5766 264.716 73.1356 265.101L92.4701 276.405C93.0781 276.713 93.7502 276.873 94.432 276.873C95.1137 276.873 95.7858 276.713 96.3939 276.405L115.728 265.101C116.296 264.725 116.767 264.22 117.103 263.628C117.438 263.036 117.63 262.373 117.662 261.693L117.662 239.086C117.618 238.409 117.421 237.751 117.086 237.161C116.752 236.571 116.287 236.064 115.728 235.678L96.3938 224.375C95.7858 224.067 95.1137 223.907 94.432 223.907C93.7502 223.907 93.0781 224.067 92.4701 224.375L73.1356 235.678Z" stroke="#ED6C50" stroke-width="2" stroke-miterlimit="10"/>
<path d="M73.1356 235.622C72.568 235.998 72.0973 236.503 71.7614 237.095C71.4255 237.687 71.2339 238.35 71.2021 239.03L71.2021 261.636C71.2459 262.313 71.4426 262.972 71.7774 263.562C72.1123 264.152 72.5766 264.659 73.1356 265.045L92.4701 276.348C93.0781 276.656 93.7502 276.816 94.432 276.816C95.1137 276.816 95.7858 276.656 96.3939 276.348L115.728 265.044C116.296 264.668 116.767 264.163 117.103 263.571C117.438 262.979 117.63 262.316 117.662 261.636L117.662 239.03C117.618 238.353 117.421 237.694 117.086 237.104C116.752 236.514 116.287 236.007 115.728 235.622L96.3938 224.318C95.7858 224.01 95.1137 223.85 94.432 223.85C93.7502 223.85 93.0781 224.01 92.4701 224.318L73.1356 235.622Z" stroke="#ED6C50" stroke-width="2" stroke-miterlimit="10"/>
<path d="M61.4212 204.324C60.803 204.016 60.1217 203.856 59.4309 203.856C58.7401 203.856 58.0587 204.016 57.4406 204.324L37.8786 215.628C37.304 216.002 36.8247 216.504 36.4792 217.096C36.1336 217.688 35.9313 218.352 35.8883 219.036L35.7745 241.415C35.8063 242.095 35.9979 242.758 36.3338 243.35C36.6697 243.942 37.1405 244.447 37.708 244.823L57.1562 255.9C57.7744 256.208 58.4557 256.368 59.1465 256.368C59.8373 256.368 60.5187 256.208 61.1369 255.9L80.6988 244.596C81.2734 244.222 81.7526 243.719 82.0982 243.128C82.4438 242.536 82.6461 241.872 82.6891 241.188L82.8028 218.809C82.7711 218.129 82.5795 217.466 82.2436 216.874C81.9077 216.282 81.4369 215.777 80.8694 215.401L61.4212 204.324Z" stroke="#ED6C50" stroke-width="2" stroke-miterlimit="10"/>
<path d="M2.79216 195.066C2.22463 195.442 1.75385 195.947 1.41795 196.539C1.08205 197.131 0.890489 197.794 0.858732 198.474L0.858734 221.137C0.902499 221.814 1.09917 222.473 1.43402 223.063C1.76888 223.653 2.2332 224.16 2.79216 224.545L22.1266 235.849C22.7347 236.157 23.4068 236.317 24.0885 236.317C24.7702 236.317 25.4424 236.157 26.0504 235.849L45.3849 224.545C45.9524 224.169 46.4232 223.664 46.7591 223.072C47.095 222.48 47.2866 221.817 47.3183 221.137L47.3183 198.531C47.2746 197.854 47.0779 197.195 46.743 196.605C46.4082 196.015 45.9439 195.508 45.3849 195.123L26.0504 183.819C25.4424 183.511 24.7702 183.351 24.0885 183.351C23.4068 183.351 22.7347 183.511 22.1266 183.819L2.79216 195.066Z" stroke="#ED6C50" stroke-width="2" stroke-miterlimit="10"/>
</g>
<defs>
<clipPath id="clip0_1_3">
<rect width="330" height="318" fill="white" transform="translate(330 318) rotate(180)"/>
</clipPath>
</defs>
</svg>
